# xmcd
#
# Track frame offsets:
#	150
#	21240
#	38160
#	55355
#	76075
#	90952
#	105850
#	130420
#	146937
#	167995
#	184965
#	202157
#	222880
#	237745
#	252582
#	277097
#	305040
#
# Disc length: 4079 seconds
#
# Revision: 1
# Processed by: cddbd v1.5.2PL0 Copyright (c) Steve Scherf et al.
# Submitted via: audiograbber 1.83.01
#
DISCID=050fed11
DTITLE=Sound Choice - SC2258
DYEAR=1900
DGENRE=Karaoke
TTITLE0=Lee Ann Womack - I Hope You Dance (Radio Version)
TTITLE1=Lee Ann Womack - Why They Call It Falling
TTITLE2=Lee Ann Womack - Stronger Than I Am
TTITLE3=Lee Ann Womack - Ashes By Now
TTITLE4=Lee Ann Womack - After I Fall
TTITLE5=Lee Ann Womack - Healing Kind
TTITLE6=Lee Ann Womack - I Know Why The River Runs
TTITLE7=Lee Ann Womack - Does My Ring Burn Your Finger
TTITLE8=Lee Ann Womack - I Hope You Dance (Radio Version) (Vocal Version)
TTITLE9=Lee Ann Womack - Why They Call It Falling (Vocal Version)
TTITLE10=Lee Ann Womack - Stronger Than I Am (Vocal Version)
TTITLE11=Lee Ann Womack - Ashes By Now (Vocal Version)
TTITLE12=Lee Ann Womack - After I Fall (Vocal Version)
TTITLE13=Lee Ann Womack - Healing Kind (Vocal Version)
TTITLE14=Lee Ann Womack - I Know Why The River Runs (Vocal Version)
TTITLE15=Lee Ann Womack - Does My Ring Burn Your Finger (Vocal Version)
TTITLE16=Data Track - Data Track
EXTD=
EXTT0=
EXTT1=
EXTT2=
EXTT3=
EXTT4=
EXTT5=
EXTT6=
EXTT7=
EXTT8=
EXTT9=
EXTT10=
EXTT11=
EXTT12=
EXTT13=
EXTT14=
EXTT15=
EXTT16=
PLAYORDER=
